HIERARCHY
ROOT Hips
{
  OFFSET 155.048 98.1286 3.93448
  CHANNELS 6 Xposition Yposition Zposition Zrotation Xrotation Yrotation
  JOINT RightUpLeg
  {
    OFFSET -8.9458 -8.66707 0.101652
    CHANNELS 3 Zrotation Xrotation Yrotation
    JOINT RightLeg
    {
      OFFSET 0 -44.4227 1.3727
      CHANNELS 3 Zrotation Xrotation Yrotation
      JOINT RightFoot
      {
        OFFSET 0.253549 -42.0924 -1.46059
        CHANNELS 3 Zrotation Xrotation Yrotation
        JOINT RightToes
        {
          OFFSET 0.04 -4.41509 8.4991
          CHANNELS 3 Zrotation Xrotation Yrotation
          End Site
          {
            OFFSET -0.08 -0.137448 9.77979
          }
        }
      }
    }
  }
  JOINT Spine
  {
    OFFSET 0 11.8905 0
    CHANNELS 3 Zrotation Xrotation Yrotation
    JOINT Spine1
    {
      OFFSET 0 25.6574 0.127663
      CHANNELS 3 Zrotation Xrotation Yrotation
      JOINT Head
      {
        OFFSET 0 8.73416 0.011341
        CHANNELS 3 Zrotation Xrotation Yrotation
        End Site
        {
          OFFSET -0.29 12.7742 2.51395
        }
      }
      JOINT LeftShoulder1
      {
        OFFSET 8.99 -0.362252 -0.22
        CHANNELS 3 Zrotation Xrotation Yrotation
        JOINT LeftArm
        {
          OFFSET 10.2827 -0.00337999 0.322123
          CHANNELS 3 Zrotation Xrotation Yrotation
          JOINT LeftForeArm
          {
            OFFSET 26.2597 0.099144 -1.42434
            CHANNELS 3 Zrotation Xrotation Yrotation
            JOINT LeftHand
            {
              OFFSET 22.0902 0.085362 1.02216
              CHANNELS 3 Zrotation Xrotation Yrotation
              End Site
              {
                OFFSET 13.419 -0.6 1.50291
              }
            }
          }
        }
      }
      JOINT RightShoulder
      {
        OFFSET -8.99 -0.362252 -0.22
        CHANNELS 3 Zrotation Xrotation Yrotation
        JOINT RightArm
        {
          OFFSET -10.2827 -0.00338 0.322123
          CHANNELS 3 Zrotation Xrotation Yrotation
          JOINT RightForeArm
          {
            OFFSET -26.364 0.099144 -1.42434
            CHANNELS 3 Zrotation Xrotation Yrotation
            JOINT RightHand
            {
              OFFSET -22.0324 0.085362 1.02216
              CHANNELS 3 Zrotation Xrotation Yrotation
              End Site
              {
                OFFSET -13.3284 -0.6 1.50291
              }
            }
          }
        }
      }
    }
  }
  JOINT LeftUpLeg
  {
    OFFSET 8.9458 -8.66707 0.101652
    CHANNELS 3 Zrotation Xrotation Yrotation
    JOINT LeftLeg
    {
      OFFSET 0 -44.4227 1.3727
      CHANNELS 3 Zrotation Xrotation Yrotation
      JOINT LeftFoot
      {
        OFFSET -0.253549 -42.0924 -1.46059
        CHANNELS 3 Zrotation Xrotation Yrotation
        JOINT LeftToes
        {
          OFFSET -0.04 -4.41509 8.4991
          CHANNELS 3 Zrotation Xrotation Yrotation
          End Site
          {
            OFFSET 0.08 -0.047448 9.77979
          }
        }
      }
    }
  }
}
MOTION
Frames:	19
Frame Time:	0.0333333
89.7631 90.217 3.98181 1.46178 2.72482 -92.1538 4.00285 -44.4927 8.55979 -0.899314 35.3711 -12.24 9.45819 -14.9217 0.401352 0.0462048 0.000530889 0.662642 -2.01925 30.0955 -1.97888 0.2162 4.64165 -2.24337 -4.18436 -11.8772 7.24528 -25.0576 4.45524 -10.6846 -33.8883 -21.055 7.31104 -14.7704 25.4328 -93.9975 19.0884 8.83441 -1.27032 39.5219 8.51347 14.5103 24.3905 -35.5917 -24.3419 -1.77465 23.2392 90.043 -5.24168 9.59675 2.46753 -1.16608 -44.7924 -7.45675 1.20486 38.5062 19.0151 -8.03647 -14.9531 -0.482633 -1.34803e-009 8.75207e-006 -1.4617e-008 
86.2032 84.0169 3.67544 -1.60994 2.17529 -91.1901 2.6241 -49.8154 6.01969 -0.958544 49.7655 -10.2466 6.96839 -10.1255 -0.032901 0.0462048 0.000530889 0.662642 -2.94114 34.7483 -1.72551 1.19167 3.84795 -2.68074 -4.66458 -13.6375 6.75829 -26.1877 4.76981 -11.1685 -32.6866 -21.5036 3.55239 -18.1382 23.5453 -84.1428 17.8204 9.0654 -0.181808 40.7034 9.06542 15.1842 23.0499 -35.9374 -23.8626 -4.33959 23.7368 84.5175 -3.11773 9.74559 2.27716 -4.00236 -50.4296 -7.94044 1.50008 54.2515 17.4935 -1.58396 -9.68512 0.0335929 -1.34803e-009 8.75207e-006 -1.4617e-008 
82.725 78.0227 3.51517 -4.70684 1.97221 -90.4976 -0.0758225 -54.9707 0.98609 -1.51082 66.3051 -7.08071 4.36144 -8.66665 -0.150088 0.0462048 0.000530889 0.662642 -1.85029 38.9771 -1.76614 0.878807 3.69836 -2.70643 -5.10946 -16.0514 5.57956 -28.4107 5.48292 -12.2926 -31.5175 -22.0984 -4.56365 -18.0814 19.8043 -70.7212 16.5247 9.30993 1.1286 43.0407 10.0778 16.2565 22.0551 -37.5243 -19.5833 -4.51586 24.9878 73.3962 -3.09565 9.73816 2.62832 -5.00143 -55.1806 -6.76693 2.56088 70.5894 14.7809 2.08703 -10.2715 0.101394 -1.34803e-009 8.75207e-006 -1.4617e-008 
79.5796 73.3811 3.49633 -6.76742 2.50646 -90.426 -1.22447 -58.1017 -1.72612 -2.92924 78.47 -4.4644 2.76174 -12.6712 -0.0823717 0.0462048 0.000530889 0.662642 0.28886 41.4178 -2.18371 -0.327891 3.9637 -2.23167 -4.92959 -17.3734 4.77764 -30.6056 6.43261 -13.927 -31.7403 -22.1952 -14.1337 -13.7221 16.1794 -54.5215 19.2872 9.2291 1.28769 45.0724 11.0491 17.2645 23.3819 -37.5754 -9.91035 -1.01855 24.7156 53.8718 -5.39055 9.54512 3.55477 -3.41132 -57.9897 -4.33491 6.36436 82.5003 9.85367 2.02973 -16.1741 0.228235 -1.34803e-009 8.75207e-006 -1.4617e-008 
76.9043 70.2657 3.59169 -7.58313 3.20367 -90.7942 0.231045 -59.93 -0.684092 -8.17041 85.8947 0.284387 2.31677 -17.5325 -0.0306596 0.0462048 0.000530889 0.662642 1.608 42.9997 -2.37064 -0.974125 3.03205 -1.73338 -4.65192 -17.253 4.46039 -31.9948 7.19983 -15.2825 -33.1269 -21.4153 -21.8587 -12.6044 11.2449 -38.2678 25.9159 9.06531 1.6184 45.8704 11.6032 17.9489 25.3471 -33.0595 1.1848 4.48928 18.83 31.9187 -7.62544 9.36712 3.69192 -1.5902 -59.5971 -2.42725 87.2157 89.1774 -71.2543 0.903855 -21.606 0.234146 -1.34803e-009 8.75207e-006 -1.4617e-008 
74.4353 68.0283 3.76084 -7.87511 3.35998 -90.8963 1.67074 -61.1113 1.36463 -155.171 88.5682 146.379 2.7876 -20.414 0.0618718 0.0462048 0.000530889 0.662642 2.18953 44.5481 -2.48023 -1.14788 1.06584 -1.52565 -4.49811 -16.5755 4.18083 -32.5539 7.56322 -15.9322 -34.7584 -20.4755 -27.4963 -15.2135 -0.398625 -26.4075 30.0176 9.18012 2.648 46.0485 11.9234 18.4593 25.3458 -29.6286 8.81306 7.41721 12.4871 17.0489 -8.16805 9.40629 2.33006 -1.77843 -60.5531 -2.3084 170.984 84.6756 -154.498 0.242153 -24.6028 0.175337 -1.34803e-009 8.75207e-006 -1.4617e-008 
72.2311 66.7936 4.02783 -8.05504 3.0829 -90.722 1.40448 -61.2757 1.95796 -173.154 84.8815 164.192 3.65991 -22.6113 0.22104 0.0462048 0.000530889 0.662642 3.23834 45.271 -2.89903 -1.80998 0.369798 -1.36845 -4.00745 -16.0552 3.74619 -32.647 7.64304 -16.086 -37.4685 -22.1312 -32.4938 -17.0115 -11.7131 -20.1643 27.899 9.51483 3.85909 46.3328 12.1907 18.8215 26.4201 -37.337 13.8732 9.03842 18.9077 10.9775 -8.00343 9.49069 1.13086 -2.94649 -60.3939 -2.79271 174.426 81.2424 -157.415 -0.621696 -27.0222 0.0414182 -1.34803e-009 8.75207e-006 -1.4617e-008 
70.34 66.8426 4.40942 -7.81185 2.96588 -90.851 0.985568 -60.377 2.09586 -174.592 83.553 165.86 4.5075 -25.1583 0.423883 0.0462048 0.000530889 0.662642 4.49391 44.3573 -3.1075 -2.5674 1.58047 -0.973064 -3.07629 -15.6161 3.15382 -32.7816 7.67166 -16.0909 -41.9094 -26.6754 -36.6337 -17.6097 -13.09 -17.8413 22.8974 9.74785 4.65295 46.4877 12.2477 18.8545 25.7409 -35.6054 15.5012 7.03573 18.7208 14.7389 -8.26095 9.42617 1.92231 -3.03479 -59.2097 -2.25973 174.941 80.2592 -157.761 -2.06494 -29.5816 -0.244489 -1.34803e-009 8.75207e-006 -1.4617e-008 
68.5759 67.776 4.82806 -6.92718 2.95315 -91.455 1.51296 -59.1728 3.17336 -174.044 84.1376 165.256 5.14218 -26.944 0.598324 0.0462048 0.000530889 0.662642 4.72498 42.6069 -2.6263 -2.58036 2.70814 -0.495957 -2.00392 -15.0342 2.50828 -33.2035 7.70685 -15.9709 -40.4632 -24.247 -35.5341 -18.2188 -12.8985 -21.4776 20.1016 9.56018 3.4558 46.2893 12.0744 18.6278 24.8194 -32.4851 15.4728 3.9523 18.5324 22.4888 -8.70904 9.2524 4.10796 -2.35099 -57.7961 -1.0298 174.502 81.0244 -157.251 -3.2547 -31.1651 -0.521297 -1.34803e-009 8.75207e-006 -1.4617e-008 
66.9513 69.107 5.21465 -5.70344 2.74216 -92.092 2.15588 -58.066 4.64274 -172.111 85.5075 163.069 5.629 -27.4215 0.70643 0.0462048 0.000530889 0.662642 4.26201 41.2225 -2.09783 -2.33524 2.50102 -0.261151 -0.841807 -14.5591 2.10685 -33.713 7.68008 -15.6579 -39.0491 -22.9144 -32.4886 -17.886 -5.50207 -26.251 20.9752 9.14543 1.17014 46.1995 11.9694 18.4758 25.2294 -35.5683 15.4694 1.12394 23.4701 30.7556 -8.88415 9.13854 5.55246 -1.97552 -56.5166 -0.0255727 173.423 82.5076 -156.19 -3.76655 -31.568 -0.645118 -1.34803e-009 8.75207e-006 -1.4617e-008 
65.6306 70.797 5.58164 -4.41965 2.50709 -92.4608 2.28473 -56.8218 5.54609 -165.255 87.5663 156.112 6.18286 -27.5455 0.813124 0.0462048 0.000530889 0.662642 4.28339 40.1623 -2.09058 -2.5835 1.89637 -0.230785 0.321498 -14.6898 2.12091 -34.0371 7.6236 -15.3662 -37.6605 -21.9037 -29.2328 -15.9304 3.09875 -31.2095 23.0349 8.8408 -0.034374 46.4378 12.0506 18.5169 24.923 -37.4873 15.16 -0.99534 25.6879 38.836 -8.97563 9.12565 5.61543 -1.85413 -55.187 0.634886 170.77 84.7102 -153.813 -4.03426 -31.6751 -0.707737 -1.34803e-009 8.75207e-006 -1.4617e-008 
64.5595 72.8379 5.92008 -3.00642 2.42454 -92.6729 2.20255 -55.3866 5.95976 -40.6873 89.0508 31.5056 6.84114 -27.7253 0.942826 0.0462048 0.000530889 0.662642 4.61133 38.7991 -2.16758 -2.86784 1.86679 -0.183399 1.00829 -15.576 2.28915 -34.1795 7.6467 -15.356 -36.684 -21.0969 -26.819 -12.8257 9.85388 -35.3578 23.9713 8.71525 -0.426373 46.5574 12.0965 18.5468 24.779 -38.5823 15.4105 -2.65398 26.5691 45.6683 -9.1584 9.13001 5.30602 -1.70038 -53.7656 1.11102 157.63 87.8036 -140.93 -4.17092 -31.6835 -0.73817 -1.34803e-009 8.75207e-006 -1.4617e-008 
63.5854 75.0038 6.17148 -1.48662 2.25532 -92.8239 2.00774 -53.9854 6.26511 -8.21001 85.6276 -1.15512 7.3825 -27.3426 1.01783 0.0462048 0.000530889 0.662642 4.28254 37.1741 -1.81932 -2.59038 2.23236 -0.0482569 0.95403 -16.7949 2.24987 -34.2961 7.75947 -15.5748 -36.397 -20.6189 -25.5465 -10.4423 13.5015 -37.6272 23.9207 8.62552 -0.885643 46.3373 12.0118 18.4913 25.1417 -39.1923 16.2576 -3.89895 26.9407 50.6184 -9.27658 9.11906 5.30606 -1.9197 -52.3435 1.17568 25.3457 88.0455 -8.54346 -3.88008 -31.1651 -0.658144 -1.34803e-009 8.75207e-006 -1.4617e-008 
62.6887 77.2075 6.33007 -0.191924 1.83006 -92.8326 1.45026 -52.4414 6.38331 -4.51435 81.9306 -5.14589 7.69394 -26.3027 1.00555 0.0462048 0.000530889 0.662642 3.51586 35.6228 -1.35644 -2.31947 2.82586 0.116779 0.594169 -17.6367 2.02703 -34.4354 7.87359 -15.7847 -36.5143 -20.1119 -25.625 -10.2008 13.6501 -37.3046 23.3324 8.60997 -1.1316 46.1815 11.9859 18.5142 25.4988 -39.5227 17.2325 -4.49862 26.9822 53.449 -9.44426 9.09354 5.441 -2.69428 -50.6741 0.758251 8.26337 84.1051 8.76918 -3.27363 -30.1761 -0.502079 -1.34803e-009 8.75207e-006 -1.4617e-008 
61.8648 79.5779 6.44961 0.683454 1.39081 -92.7144 0.678181 -50.2933 6.21342 -3.04147 77.8189 -6.89622 7.9034 -25.2063 0.967122 0.0462048 0.000530889 0.662642 3.22379 34.0578 -1.20217 -2.73601 3.85954 0.305615 0.41455 -17.6261 1.84049 -34.5366 7.92786 -15.8673 -36.8283 -19.4556 -26.7353 -11.0075 11.7859 -34.8718 22.4165 8.71368 -0.863382 46.3198 12.0927 18.6475 25.6779 -39.5613 18.0835 -4.75684 27.0521 54.2005 -9.80369 9.0562 5.48723 -3.35594 -48.4267 0.416769 4.70154 79.6456 12.1921 -2.74557 -29.0399 -0.370355 -1.34803e-009 8.75207e-006 -1.4617e-008 
61.0415 82.1386 6.54339 1.3388 1.11788 -92.6065 -0.0203515 -47.5561 5.86887 -2.21282 72.9848 -7.88992 8.10968 -24.1586 0.927573 0.0462048 0.000530889 0.662642 3.35084 32.3292 -1.17779 -3.40259 5.00723 0.524263 0.324571 -16.915 1.66894 -34.6032 7.93744 -15.8587 -37.4121 -18.8404 -27.668 -11.4337 9.72593 -31.7127 21.9361 8.82191 -0.421534 46.4966 12.1781 18.7234 25.906 -39.1188 18.4691 -5.04229 27.3938 53.1519 -10.0283 9.04003 5.42256 -3.45402 -45.7172 0.568213 3.11242 74.6048 13.2204 -2.3277 -27.6421 -0.267065 -1.34803e-009 8.75207e-006 -1.4617e-008 
60.19 84.7627 6.57552 2.0407 0.85185 -92.491 -0.773926 -44.6641 5.36333 -1.70348 67.6505 -8.39541 8.24445 -22.7712 0.850812 0.0462048 0.000530889 0.662642 3.18402 30.5286 -0.98387 -3.64844 5.63048 0.704806 0.0908238 -16.1358 1.39 -34.7393 7.94626 -15.8153 -38.2023 -18.442 -27.4009 -11.5601 7.98444 -29.0122 22.422 8.84315 -0.172445 46.589 12.185 18.694 26.0284 -38.2187 17.8465 -5.12551 27.8069 50.8339 -9.72348 9.08351 5.22537 -3.42993 -42.8775 0.860742 2.25434 69.0945 13.4543 -1.84815 -25.7716 -0.159386 -1.34803e-009 8.75207e-006 -1.4617e-008 
59.3286 87.3835 6.54884 2.83363 0.536231 -92.2568 -1.61539 -41.76 4.71695 -1.37304 62.0157 -8.65278 8.20389 -21.0043 0.723479 0.0462048 0.000530889 0.662642 2.78761 28.5394 -0.734995 -3.65036 5.93424 0.819318 -0.171364 -15.7438 1.08315 -35.0281 7.98293 -15.7667 -38.7506 -18.1419 -25.9658 -11.7796 6.38707 -27.1517 23.2136 8.8169 -0.104842 46.7914 12.2278 18.6799 25.654 -37.0201 16.1625 -4.63593 27.9398 47.6487 -8.9292 9.1766 4.93853 -3.65471 -39.977 0.804989 1.75347 63.183 13.5176 -1.35448 -23.6009 -0.0644674 -1.34803e-009 8.75207e-006 -1.4617e-008 
58.4334 89.9528 6.49886 3.6006 0.396828 -91.9347 -2.17887 -38.6373 4.14064 -1.15475 55.9905 -8.9383 7.99159 -19.1198 0.572503 0.0462048 0.000530889 0.662642 2.75213 26.0188 -0.614572 -3.84925 6.66343 0.949568 -0.285306 -15.5985 0.843115 -35.4342 8.04163 -15.7158 -38.6875 -17.5427 -23.9411 -11.9504 5.08429 -25.8208 23.3617 8.80721 -0.117622 47.1508 12.3435 18.7264 24.8277 -35.5035 13.9889 -3.60438 27.6882 43.5743 -8.02156 9.26717 4.79168 -3.83931 -36.913 0.453511 1.43953 56.9549 13.5509 -0.96 -21.3618 -0.00208854 -1.34803e-009 8.75207e-006 -1.4617e-008 
